<?xml version="1.0" encoding="utf-8"?>
<svg width="50px" height="50px" viewBox="0 0 50 50" version="1.1" xmlns:xlink="http://www.w3.org/1999/xlink" xmlns="http://www.w3.org/2000/svg">
  <desc>Created with Lunacy</desc>
  <defs>
    <path d="M25 50C38.8071 50 50 38.8071 50 25C50 11.1929 38.8071 0 25 0C11.1929 0 0 11.1929 0 25C0 38.8071 11.1929 50 25 50Z" id="path_1" />
    <clipPath id="mask_1">
      <use xlink:href="#path_1" />
    </clipPath>
  </defs>
  <g id="icons/stroked/person">
    <g id="icons/stroked/person">
      <path d="M25 50C38.8071 50 50 38.8071 50 25C50 11.1929 38.8071 0 25 0C11.1929 0 0 11.1929 0 25C0 38.8071 11.1929 50 25 50Z" id="Mask" fill="#D8D8D8" stroke="none" />
      <g clip-path="url(#mask_1)">
        <path d="M34.7029 30.4348C34.6293 30.4117 32.9386 29.8912 28.8316 29.5566C28.5347 28.8226 28.3331 27.7975 28.2341 26.5431C31.6211 23.8189 33.7068 19.0712 33.7068 14.0148C33.7068 6.34597 32.8115 0 21.8044 0C10.8037 0 9.90837 6.34597 9.90837 14.0148C9.90837 19.1091 11.916 23.7246 15.3039 26.4821C15.1858 27.7282 14.9715 28.7468 14.6755 29.4808C10.2371 29.8099 8.89955 30.4154 8.83145 30.4533C2.72407 32.7744 0 36.3555 0 41.5784L0 42.5L43.5852 42.5L43.5852 41.5784C43.5852 35.8675 40.6695 32.0737 34.7029 30.4348L34.7029 30.4348ZM1.84965 40.6558C2.14748 36.7484 4.42299 34.0982 9.53245 32.1532C9.54516 32.1477 10.8645 31.5764 15.3229 31.2825L15.816 31.2501L16.0566 30.811C16.6405 29.748 17.01 28.1709 17.1544 26.1216L17.1907 25.6159L16.7857 25.3136C13.6649 22.9851 11.7244 18.6552 11.7244 14.0148C11.7244 6.66304 12.4263 1.84417 21.8044 1.84417C31.1888 1.84417 31.8907 6.66304 31.8907 14.0148C31.8907 18.6894 29.9258 23.0387 26.7631 25.3617L26.3609 25.6575L26.389 26.1595C26.5025 28.2236 26.8576 29.8127 27.4469 30.8831L27.6839 31.3185L28.1733 31.3555C32.4101 31.667 34.1499 32.1921 34.1962 32.205C39.095 33.5528 41.455 36.3269 41.7383 40.6558L1.84965 40.6558L1.84965 40.6558Z" transform="translate(3.125 10)" id="icons/stroked/person" fill="#C9C9C9" stroke="none" />
      </g>
    </g>
  </g>
</svg>